<!-- public/vite-colored.svg -->
<svg width="256" height="257" viewBox="0 0 256 257" fill="none" xmlns="http://www.w3.org/2000/svg">
  <path 
    d="M255.153 37.938L134.574 252.976c-4.132 7.42-14.722 7.52-18.986.18L.875 37.98c-4.692-8.036 
       2.04-17.98 11.42-16.7l115.81 16.54a10.18 10.18 0 003.03 0l111.59-16.5c9.36-1.39 
       16.14 8.48 11.48 16.53z"
    fill="currentColor"
    opacity="0.25"
  />
  <path 
    d="M185.432.063l-92.34 14.19c-2.671.42-4.73 2.7-4.98 5.39l-8.19 88.78a6.13 6.13 0 008.42 
       6.3l25.25-9.88c2.83-1.11 6 .16 7.19 2.95l28.09 65.86c1.17 2.75 5.05 2.75 6.23 0l39.02-91.47a6.17 
       6.17 0 00-3.85-8.2l-26.06-7.71c-2.89-.86-4.52-3.9-3.63-6.77l17.45-56.59c.88-2.86-1.74-5.72-4.72-5.27z"
    fill="currentColor"
  />
</svg>
